{
	"asset":{
		"generator":"Khronos glTF Blender I/O v5.0.21",
		"version":"2.0"
	},
	"scene":0,
	"scenes":[
		{
			"name":"Scene",
			"nodes":[
				0,
				1,
				2,
				3,
				4
			]
		}
	],
	"nodes":[
		{
			"mesh":0,
			"name":"Floor -col"
		},
		{
			"mesh":1,
			"name":"Wall -col",
			"rotation":[
				0.7071068286895752,
				0,
				0,
				0.7071068286895752
			],
			"translation":[
				0,
				1,
				-18
			]
		},
		{
			"mesh":2,
			"name":"Stuff -col",
			"translation":[
				6,
				1,
				-7
			]
		},
		{
			"mesh":3,
			"name":"Dirt -col",
			"translation":[
				-19,
				0,
				9
			]
		},
		{
			"mesh":4,
			"name":"Material Test -col",
			"translation":[
				-9,
				1,
				15.999999046325684
			]
		}
	],
	"materials":[
		{
			"extras":{
				"material":"concrete"
			},
			"name":"IMG_dev_1m.png",
			"pbrMetallicRoughness":{
				"baseColorTexture":{
					"index":0
				},
				"metallicFactor":0,
				"roughnessFactor":0.5
			}
		},
		{
			"extras":{
				"material":"dirt"
			},
			"name":"IMG_dirt_1.png",
			"pbrMetallicRoughness":{
				"baseColorTexture":{
					"index":1
				},
				"metallicFactor":0
			}
		}
	],
	"meshes":[
		{
			"name":"Plane",
			"primitives":[
				{
					"attributes":{
						"POSITION":0,
						"NORMAL":1,
						"TEXCOORD_0":2
					},
					"indices":3,
					"material":0
				}
			]
		},
		{
			"name":"Plane.001",
			"primitives":[
				{
					"attributes":{
						"POSITION":4,
						"NORMAL":5,
						"TEXCOORD_0":6,
						"TANGENT":7
					},
					"indices":8,
					"material":0
				}
			]
		},
		{
			"name":"Cube.003",
			"primitives":[
				{
					"attributes":{
						"POSITION":9,
						"NORMAL":10,
						"TEXCOORD_0":11,
						"TANGENT":12
					},
					"indices":13
				},
				{
					"attributes":{
						"POSITION":14,
						"NORMAL":15,
						"TEXCOORD_0":16,
						"TANGENT":17
					},
					"indices":18,
					"material":0
				}
			]
		},
		{
			"name":"Plane.002",
			"primitives":[
				{
					"attributes":{
						"POSITION":19,
						"NORMAL":20,
						"TEXCOORD_0":21,
						"TANGENT":22
					},
					"indices":8,
					"material":1
				}
			]
		},
		{
			"name":"Cube",
			"primitives":[
				{
					"attributes":{
						"POSITION":23,
						"NORMAL":24,
						"TEXCOORD_0":25,
						"TANGENT":26
					},
					"indices":27,
					"material":0
				},
				{
					"attributes":{
						"POSITION":28,
						"NORMAL":29,
						"TEXCOORD_0":30,
						"TANGENT":31
					},
					"indices":32,
					"material":1
				}
			]
		}
	],
	"textures":[
		{
			"sampler":0,
			"source":0
		},
		{
			"sampler":0,
			"source":1
		}
	],
	"images":[
		{
			"mimeType":"image/png",
			"name":"dev_1m.png",
			"uri":"../../asset/texture/dev/dev_1m.png"
		},
		{
			"mimeType":"image/png",
			"name":"dirt_1.png",
			"uri":"../../asset/texture/enviorment/dirt/dirt_1.png"
		}
	],
	"accessors":[
		{
			"bufferView":0,
			"componentType":5126,
			"count":6,
			"max":[
				19,
				0,
				17
			],
			"min":[
				-20,
				0,
				-18
			],
			"type":"VEC3"
		},
		{
			"bufferView":1,
			"componentType":5126,
			"count":6,
			"type":"VEC3"
		},
		{
			"bufferView":2,
			"componentType":5126,
			"count":6,
			"type":"VEC2"
		},
		{
			"bufferView":3,
			"componentType":5123,
			"count":12,
			"type":"SCALAR"
		},
		{
			"bufferView":4,
			"componentType":5126,
			"count":4,
			"max":[
				19,
				0,
				1
			],
			"min":[
				-20,
				-9.616505849407986e-07,
				-23
			],
			"type":"VEC3"
		},
		{
			"bufferView":5,
			"componentType":5126,
			"count":4,
			"type":"VEC3"
		},
		{
			"bufferView":6,
			"componentType":5126,
			"count":4,
			"type":"VEC2"
		},
		{
			"bufferView":7,
			"componentType":5126,
			"count":4,
			"type":"VEC4"
		},
		{
			"bufferView":8,
			"componentType":5123,
			"count":6,
			"type":"SCALAR"
		},
		{
			"bufferView":9,
			"componentType":5126,
			"count":22,
			"max":[
				1,
				1,
				6
			],
			"min":[
				-1,
				-1,
				-1
			],
			"type":"VEC3"
		},
		{
			"bufferView":10,
			"componentType":5126,
			"count":22,
			"type":"VEC3"
		},
		{
			"bufferView":11,
			"componentType":5126,
			"count":22,
			"type":"VEC2"
		},
		{
			"bufferView":12,
			"componentType":5126,
			"count":22,
			"type":"VEC4"
		},
		{
			"bufferView":13,
			"componentType":5123,
			"count":30,
			"type":"SCALAR"
		},
		{
			"bufferView":14,
			"componentType":5126,
			"count":180,
			"max":[
				1,
				2,
				9
			],
			"min":[
				-1,
				-1,
				-3
			],
			"type":"VEC3"
		},
		{
			"bufferView":15,
			"componentType":5126,
			"count":180,
			"type":"VEC3"
		},
		{
			"bufferView":16,
			"componentType":5126,
			"count":180,
			"type":"VEC2"
		},
		{
			"bufferView":17,
			"componentType":5126,
			"count":180,
			"type":"VEC4"
		},
		{
			"bufferView":18,
			"componentType":5123,
			"count":270,
			"type":"SCALAR"
		},
		{
			"bufferView":19,
			"componentType":5126,
			"count":4,
			"max":[
				9,
				0,
				8.000000953674316
			],
			"min":[
				-1,
				0,
				-1
			],
			"type":"VEC3"
		},
		{
			"bufferView":20,
			"componentType":5126,
			"count":4,
			"type":"VEC3"
		},
		{
			"bufferView":21,
			"componentType":5126,
			"count":4,
			"type":"VEC2"
		},
		{
			"bufferView":22,
			"componentType":5126,
			"count":4,
			"type":"VEC4"
		},
		{
			"bufferView":23,
			"componentType":5126,
			"count":20,
			"max":[
				1,
				0,
				1
			],
			"min":[
				-1,
				-1,
				-1
			],
			"type":"VEC3"
		},
		{
			"bufferView":24,
			"componentType":5126,
			"count":20,
			"type":"VEC3"
		},
		{
			"bufferView":25,
			"componentType":5126,
			"count":20,
			"type":"VEC2"
		},
		{
			"bufferView":26,
			"componentType":5126,
			"count":20,
			"type":"VEC4"
		},
		{
			"bufferView":27,
			"componentType":5123,
			"count":30,
			"type":"SCALAR"
		},
		{
			"bufferView":28,
			"componentType":5126,
			"count":4,
			"max":[
				1,
				0,
				1
			],
			"min":[
				-1,
				0,
				-1
			],
			"type":"VEC3"
		},
		{
			"bufferView":29,
			"componentType":5126,
			"count":4,
			"type":"VEC3"
		},
		{
			"bufferView":30,
			"componentType":5126,
			"count":4,
			"type":"VEC2"
		},
		{
			"bufferView":31,
			"componentType":5126,
			"count":4,
			"type":"VEC4"
		},
		{
			"bufferView":32,
			"componentType":5123,
			"count":6,
			"type":"SCALAR"
		}
	],
	"bufferViews":[
		{
			"buffer":0,
			"byteLength":72,
			"byteOffset":0,
			"target":34962
		},
		{
			"buffer":0,
			"byteLength":72,
			"byteOffset":72,
			"target":34962
		},
		{
			"buffer":0,
			"byteLength":48,
			"byteOffset":144,
			"target":34962
		},
		{
			"buffer":0,
			"byteLength":24,
			"byteOffset":192,
			"target":34963
		},
		{
			"buffer":0,
			"byteLength":48,
			"byteOffset":216,
			"target":34962
		},
		{
			"buffer":0,
			"byteLength":48,
			"byteOffset":264,
			"target":34962
		},
		{
			"buffer":0,
			"byteLength":32,
			"byteOffset":312,
			"target":34962
		},
		{
			"buffer":0,
			"byteLength":64,
			"byteOffset":344,
			"target":34962
		},
		{
			"buffer":0,
			"byteLength":12,
			"byteOffset":408,
			"target":34963
		},
		{
			"buffer":0,
			"byteLength":264,
			"byteOffset":420,
			"target":34962
		},
		{
			"buffer":0,
			"byteLength":264,
			"byteOffset":684,
			"target":34962
		},
		{
			"buffer":0,
			"byteLength":176,
			"byteOffset":948,
			"target":34962
		},
		{
			"buffer":0,
			"byteLength":352,
			"byteOffset":1124,
			"target":34962
		},
		{
			"buffer":0,
			"byteLength":60,
			"byteOffset":1476,
			"target":34963
		},
		{
			"buffer":0,
			"byteLength":2160,
			"byteOffset":1536,
			"target":34962
		},
		{
			"buffer":0,
			"byteLength":2160,
			"byteOffset":3696,
			"target":34962
		},
		{
			"buffer":0,
			"byteLength":1440,
			"byteOffset":5856,
			"target":34962
		},
		{
			"buffer":0,
			"byteLength":2880,
			"byteOffset":7296,
			"target":34962
		},
		{
			"buffer":0,
			"byteLength":540,
			"byteOffset":10176,
			"target":34963
		},
		{
			"buffer":0,
			"byteLength":48,
			"byteOffset":10716,
			"target":34962
		},
		{
			"buffer":0,
			"byteLength":48,
			"byteOffset":10764,
			"target":34962
		},
		{
			"buffer":0,
			"byteLength":32,
			"byteOffset":10812,
			"target":34962
		},
		{
			"buffer":0,
			"byteLength":64,
			"byteOffset":10844,
			"target":34962
		},
		{
			"buffer":0,
			"byteLength":240,
			"byteOffset":10908,
			"target":34962
		},
		{
			"buffer":0,
			"byteLength":240,
			"byteOffset":11148,
			"target":34962
		},
		{
			"buffer":0,
			"byteLength":160,
			"byteOffset":11388,
			"target":34962
		},
		{
			"buffer":0,
			"byteLength":320,
			"byteOffset":11548,
			"target":34962
		},
		{
			"buffer":0,
			"byteLength":60,
			"byteOffset":11868,
			"target":34963
		},
		{
			"buffer":0,
			"byteLength":48,
			"byteOffset":11928,
			"target":34962
		},
		{
			"buffer":0,
			"byteLength":48,
			"byteOffset":11976,
			"target":34962
		},
		{
			"buffer":0,
			"byteLength":32,
			"byteOffset":12024,
			"target":34962
		},
		{
			"buffer":0,
			"byteLength":64,
			"byteOffset":12056,
			"target":34962
		},
		{
			"buffer":0,
			"byteLength":12,
			"byteOffset":12120,
			"target":34963
		}
	],
	"samplers":[
		{
			"magFilter":9728,
			"minFilter":9984
		}
	],
	"buffers":[
		{
			"byteLength":12132,
			"uri":"test-2bc188ef99546f0c5086bedd40b8ba8f.bin"
		}
	]
}
