{
	"asset":{
		"generator":"Khronos glTF Blender I/O v5.0.21",
		"version":"2.0"
	},
	"scene":0,
	"scenes":[
		{
			"name":"Scene",
			"nodes":[
				0,
				1,
				2
			]
		}
	],
	"nodes":[
		{
			"mesh":0,
			"name":"Floor -col"
		},
		{
			"mesh":1,
			"name":"Wall -col",
			"rotation":[
				0.7071068286895752,
				0,
				0,
				0.7071068286895752
			],
			"translation":[
				0,
				1,
				-16
			]
		},
		{
			"mesh":2,
			"name":"Stuff -col",
			"translation":[
				6,
				1,
				-7
			]
		}
	],
	"materials":[
		{
			"name":"IMG_dev_1m.png",
			"pbrMetallicRoughness":{
				"baseColorTexture":{
					"index":0
				},
				"metallicFactor":0,
				"roughnessFactor":0.5
			}
		}
	],
	"meshes":[
		{
			"name":"Plane",
			"primitives":[
				{
					"attributes":{
						"POSITION":0,
						"NORMAL":1,
						"TEXCOORD_0":2,
						"TANGENT":3
					},
					"indices":4,
					"material":0
				}
			]
		},
		{
			"name":"Plane.001",
			"primitives":[
				{
					"attributes":{
						"POSITION":5,
						"NORMAL":6,
						"TEXCOORD_0":7,
						"TANGENT":8
					},
					"indices":4,
					"material":0
				}
			]
		},
		{
			"name":"Cube.003",
			"primitives":[
				{
					"attributes":{
						"POSITION":9,
						"NORMAL":10,
						"TEXCOORD_0":11,
						"TANGENT":12
					},
					"indices":13
				},
				{
					"attributes":{
						"POSITION":14,
						"NORMAL":15,
						"TEXCOORD_0":16,
						"TANGENT":17
					},
					"indices":18,
					"material":0
				}
			]
		}
	],
	"textures":[
		{
			"sampler":0,
			"source":0
		}
	],
	"images":[
		{
			"mimeType":"image/png",
			"name":"dev_1m.png",
			"uri":"../../asset/texture/dev/dev_1m.png"
		}
	],
	"accessors":[
		{
			"bufferView":0,
			"componentType":5126,
			"count":4,
			"max":[
				19,
				0,
				19
			],
			"min":[
				-20,
				0,
				-16
			],
			"type":"VEC3"
		},
		{
			"bufferView":1,
			"componentType":5126,
			"count":4,
			"type":"VEC3"
		},
		{
			"bufferView":2,
			"componentType":5126,
			"count":4,
			"type":"VEC2"
		},
		{
			"bufferView":3,
			"componentType":5126,
			"count":4,
			"type":"VEC4"
		},
		{
			"bufferView":4,
			"componentType":5123,
			"count":6,
			"type":"SCALAR"
		},
		{
			"bufferView":5,
			"componentType":5126,
			"count":4,
			"max":[
				19,
				0,
				1
			],
			"min":[
				-20,
				-9.616505849407986e-07,
				-23
			],
			"type":"VEC3"
		},
		{
			"bufferView":6,
			"componentType":5126,
			"count":4,
			"type":"VEC3"
		},
		{
			"bufferView":7,
			"componentType":5126,
			"count":4,
			"type":"VEC2"
		},
		{
			"bufferView":8,
			"componentType":5126,
			"count":4,
			"type":"VEC4"
		},
		{
			"bufferView":9,
			"componentType":5126,
			"count":22,
			"max":[
				1,
				1,
				6
			],
			"min":[
				-1,
				-1,
				-1
			],
			"type":"VEC3"
		},
		{
			"bufferView":10,
			"componentType":5126,
			"count":22,
			"type":"VEC3"
		},
		{
			"bufferView":11,
			"componentType":5126,
			"count":22,
			"type":"VEC2"
		},
		{
			"bufferView":12,
			"componentType":5126,
			"count":22,
			"type":"VEC4"
		},
		{
			"bufferView":13,
			"componentType":5123,
			"count":30,
			"type":"SCALAR"
		},
		{
			"bufferView":14,
			"componentType":5126,
			"count":180,
			"max":[
				1,
				2,
				9
			],
			"min":[
				-1,
				-1,
				-3
			],
			"type":"VEC3"
		},
		{
			"bufferView":15,
			"componentType":5126,
			"count":180,
			"type":"VEC3"
		},
		{
			"bufferView":16,
			"componentType":5126,
			"count":180,
			"type":"VEC2"
		},
		{
			"bufferView":17,
			"componentType":5126,
			"count":180,
			"type":"VEC4"
		},
		{
			"bufferView":18,
			"componentType":5123,
			"count":270,
			"type":"SCALAR"
		}
	],
	"bufferViews":[
		{
			"buffer":0,
			"byteLength":48,
			"byteOffset":0,
			"target":34962
		},
		{
			"buffer":0,
			"byteLength":48,
			"byteOffset":48,
			"target":34962
		},
		{
			"buffer":0,
			"byteLength":32,
			"byteOffset":96,
			"target":34962
		},
		{
			"buffer":0,
			"byteLength":64,
			"byteOffset":128,
			"target":34962
		},
		{
			"buffer":0,
			"byteLength":12,
			"byteOffset":192,
			"target":34963
		},
		{
			"buffer":0,
			"byteLength":48,
			"byteOffset":204,
			"target":34962
		},
		{
			"buffer":0,
			"byteLength":48,
			"byteOffset":252,
			"target":34962
		},
		{
			"buffer":0,
			"byteLength":32,
			"byteOffset":300,
			"target":34962
		},
		{
			"buffer":0,
			"byteLength":64,
			"byteOffset":332,
			"target":34962
		},
		{
			"buffer":0,
			"byteLength":264,
			"byteOffset":396,
			"target":34962
		},
		{
			"buffer":0,
			"byteLength":264,
			"byteOffset":660,
			"target":34962
		},
		{
			"buffer":0,
			"byteLength":176,
			"byteOffset":924,
			"target":34962
		},
		{
			"buffer":0,
			"byteLength":352,
			"byteOffset":1100,
			"target":34962
		},
		{
			"buffer":0,
			"byteLength":60,
			"byteOffset":1452,
			"target":34963
		},
		{
			"buffer":0,
			"byteLength":2160,
			"byteOffset":1512,
			"target":34962
		},
		{
			"buffer":0,
			"byteLength":2160,
			"byteOffset":3672,
			"target":34962
		},
		{
			"buffer":0,
			"byteLength":1440,
			"byteOffset":5832,
			"target":34962
		},
		{
			"buffer":0,
			"byteLength":2880,
			"byteOffset":7272,
			"target":34962
		},
		{
			"buffer":0,
			"byteLength":540,
			"byteOffset":10152,
			"target":34963
		}
	],
	"samplers":[
		{
			"magFilter":9728,
			"minFilter":9984
		}
	],
	"buffers":[
		{
			"byteLength":10692,
			"uri":"test-2bc188ef99546f0c5086bedd40b8ba8f.bin"
		}
	]
}
